<svg width="13" height="13" viewBox="0 0 13 13" fill="none" xmlns="http://www.w3.org/2000/svg">
<path d="M6.94141 0.100098C6.38911 0.100098 5.94141 0.547818 5.94141 1.1001V5.1001H1.94141C1.38913 5.1001 0.941406 5.5478 0.941406 6.1001C0.941406 6.6524 1.38913 7.1001 1.94141 7.1001H5.94141V11.1001C5.94141 11.6524 6.38911 12.1001 6.94141 12.1001C7.49371 12.1001 7.94141 11.6524 7.94141 11.1001V7.1001H11.9414C12.4937 7.1001 12.9414 6.6524 12.9414 6.1001C12.9414 5.5478 12.4937 5.1001 11.9414 5.1001H7.94141V1.1001C7.94141 0.547818 7.49371 0.100098 6.94141 0.100098Z" fill="#CBA866"/>
</svg>
