<svg xmlns="http://www.w3.org/2000/svg" version="1.1" xmlns:xlink="http://www.w3.org/1999/xlink" xmlns:svgjs="http://svgjs.com/svgjs" width="61px" height="20px"><svg width="61px" height="20px" viewBox="0 0 61 20" version="1.1" xmlns="http://www.w3.org/2000/svg" xmlns:xlink="http://www.w3.org/1999/xlink">
    <title>youe</title>
    <g id="SvgjsG1007" stroke="none" stroke-width="1" fill="none" fill-rule="evenodd">
        <g id="SvgjsG1006" transform="translate(-354, -52)" fill="#000000" fill-rule="nonzero">
            <g id="SvgjsG1005" transform="translate(335, 35)">
                <g id="SvgjsG1004" transform="translate(19.6049, 17.9397)">
                    <path d="M0,0.413538462 L5.29846154,14.2929231 L5.14338462,14.6806154 C4.67815385,15.8178462 4.29046154,15.7144615 2.32615385,15.7144615 L1.18892308,15.7144615 L1.18892308,19.0227692 L4.49723077,19.0227692 C6.87507692,19.0227692 8.16738462,18.0664615 9.09784615,15.6369231 L14.8873846,0.413538462 L10.4935385,0.413538462 L8.14153846,8.50338462 C7.98646154,9.02030769 7.96061538,9.48553846 7.90892308,9.95076923 C7.88307692,10.2092308 7.85723077,10.4935385 7.49538462,10.4935385 C7.13353846,10.4935385 7.08184615,10.2092308 7.08184615,9.95076923 C7.08184615,9.48553846 7.03015385,9.02030769 6.87507692,8.50338462 L4.39384615,0.413538462 L0,0.413538462 Z" id="SvgjsPath1003"></path>
                    <path d="M22.1243077,0 C17.6270769,0 14.8873846,3.25661538 14.8873846,7.23692308 C14.8873846,11.2172308 17.6270769,14.4738462 22.1243077,14.4738462 C26.6215385,14.4738462 29.3612308,11.2172308 29.3612308,7.23692308 C29.3612308,3.25661538 26.6215385,0 22.1243077,0 Z M22.1243077,10.9587692 C20.0824615,10.9587692 19.0227692,9.25292308 19.0227692,7.23692308 C19.0227692,5.22092308 20.0824615,3.51507692 22.1243077,3.51507692 C24.1661538,3.51507692 25.2258462,5.22092308 25.2258462,7.23692308 C25.2258462,9.25292308 24.1661538,10.9587692 22.1243077,10.9587692 Z" id="SvgjsPath1002"></path>
                    <path d="M35.5126154,14.4738462 C37.8646154,14.4738462 39.3636923,12.6129231 40.0356923,11.2689231 C40.1390769,11.0621538 40.2683077,10.752 40.5784615,10.8812308 C40.9144615,11.0104615 40.656,11.5273846 40.4492308,11.9409231 C40.2424615,12.3544615 40.1132308,12.7938462 40.1132308,13.4141538 L40.1132308,14.0603077 L44.2486154,14.0603077 L44.2486154,0.413538462 L40.1132308,0.413538462 L40.1132308,5.66030769 C40.1132308,8.81353846 38.5883077,10.9587692 36.9083077,10.9587692 C35.4350769,10.9587692 34.7372308,10.1058462 34.7372308,7.03015385 L34.7372308,0.413538462 L30.6018462,0.413538462 L30.6018462,8.68430769 C30.6018462,12.5612308 32.5661538,14.4738462 35.5126154,14.4738462 Z" id="SvgjsPath1001"></path>
                    <path d="M59.9630769,6.82338462 C59.9630769,2.11938462 56.5772308,0 53.1138462,0 C48.5390769,0 45.9027692,2.99815385 45.9027692,7.23692308 C45.9027692,11.2689231 48.4356923,14.4738462 53.1913846,14.4738462 C57.0424615,14.4738462 59.1618462,12.096 59.7046154,9.51138462 L55.5950769,9.51138462 C55.2590769,10.5193846 54.4578462,11.1655385 53.1655385,11.1655385 C51.4338462,11.1655385 50.2707692,10.0024615 49.9864615,8.27076923 L59.8855385,8.27076923 C59.9372308,7.88307692 59.9630769,7.21107692 59.9630769,6.82338462 Z M53.1913846,3.20492308 C54.7163077,3.20492308 55.7501538,4.13538462 55.9052308,5.78953846 L50.0898462,5.78953846 C50.4,4.31630769 51.2270769,3.20492308 53.1913846,3.20492308 Z" id="SvgjsPath1000"></path>
                </g>
            </g>
        </g>
    </g>
</svg><style>@media (prefers-color-scheme: light) { :root { filter: none; } }
</style></svg>