<svg width="360" height="116" viewBox="0 0 360 116" fill="none" xmlns="http://www.w3.org/2000/svg">
<path d="M0.375488 3.45374L32.0998 86.8148L31.1713 89.1433C28.3857 95.9736 26.0644 95.3527 14.3032 95.3527H7.49411V115.223H27.3025C41.5397 115.223 49.2774 109.479 54.8484 94.887L89.5131 3.45374H63.2051L49.1226 52.0422C48.1941 55.1469 48.0393 57.9411 47.7298 60.7353C47.5751 62.2877 47.4203 63.9953 45.2538 63.9953C43.0872 63.9953 42.7777 62.2877 42.7777 60.7353C42.7777 57.9411 42.4682 55.1469 41.5397 52.0422L26.6835 3.45374H0.375488Z" fill="#FF7228"/>
<path d="M132.844 0.968628C105.917 0.968628 89.5132 20.5282 89.5132 44.4343C89.5132 68.3405 105.917 87.9001 132.844 87.9001C159.771 87.9001 176.175 68.3405 176.175 44.4343C176.175 20.5282 159.771 0.968628 132.844 0.968628ZM132.844 66.7881C120.618 66.7881 114.274 56.5426 114.274 44.4343C114.274 32.326 120.618 22.0805 132.844 22.0805C145.069 22.0805 151.414 32.326 151.414 44.4343C151.414 56.5426 145.069 66.7881 132.844 66.7881Z" fill="#FF7228"/>
<path d="M213.006 87.9014C227.089 87.9014 236.064 76.7245 240.088 68.6523C240.707 67.4104 241.481 65.5476 243.338 66.3238C245.349 67.1 243.802 70.2047 242.564 72.6884C241.326 75.1722 240.552 77.8112 240.552 81.5368V85.4177H265.312V3.45374H240.552V34.9664C240.552 53.905 231.422 66.7895 221.363 66.7895C212.542 66.7895 208.363 61.6668 208.363 43.1938V3.45374H183.603V53.1288C183.603 76.4141 195.364 87.9014 213.006 87.9014Z" fill="#FF7228"/>
<path d="M359.402 41.9506C359.402 13.6979 339.129 0.968628 318.392 0.968628C291.001 0.968628 275.216 18.9759 275.216 44.4343C275.216 68.651 290.382 87.9001 318.857 87.9001C341.915 87.9001 354.604 73.6185 357.854 58.095H333.249C331.237 64.1491 326.439 68.03 318.702 68.03C308.333 68.03 301.37 61.0445 299.667 50.6437H358.938C359.247 48.3152 359.402 44.2791 359.402 41.9506ZM318.857 20.2177C327.987 20.2177 334.177 25.8062 335.106 35.7412H300.286C302.143 26.8928 307.095 20.2177 318.857 20.2177Z" fill="#FF7228"/>
</svg>
